<svg width="24" height="24" viewBox="0 0 24 24" fill="none" xmlns="http://www.w3.org/2000/svg">
<path d="M16.5457 17.339V19.4746C16.5457 20.317 15.8565 21 15.0064 21H4.53928C3.68918 21 3 20.317 3 19.4746V6.05086C3 4.36591 4.37831 3.00001 6.07857 3.00001H15.0064C15.8565 3.00001 16.5457 3.68298 16.5457 4.52543V6.81357" stroke="#175847" stroke-miterlimit="10" stroke-linecap="round"/>
<path d="M6.07857 2.99994V5.55078C6.07857 5.82692 5.85471 6.05078 5.57857 6.05078H3" stroke="#175847" stroke-miterlimit="10"/>
<path d="M21 11.9999C21 11.9999 18.9421 15.0508 16.3918 15.0508C13.8414 15.0508 11.7739 11.9999 11.7739 11.9999C11.7739 11.9999 13.8414 8.94909 16.3918 8.94909C18.9421 8.94909 21 11.9999 21 11.9999Z" stroke="#175847" stroke-miterlimit="10"/>
<path d="M17.1614 12C17.1614 12.4212 16.8167 12.7627 16.3917 12.7627C15.9666 12.7627 15.6221 12.4212 15.6221 12C15.6221 11.5787 15.9666 11.2373 16.3917 11.2373C16.8167 11.2373 17.1614 11.5787 17.1614 12Z" fill="#175847"/>
<path d="M9.61883 12H5.30884" stroke="#175847" stroke-miterlimit="10" stroke-linecap="round"/>
<path d="M9.61883 8.94922H5.30884" stroke="#175847" stroke-miterlimit="10" stroke-linecap="round"/>
<path d="M9.61883 15.0508H5.30884" stroke="#175847" stroke-miterlimit="10" stroke-linecap="round"/>
<path d="M14.2367 18.1016H5.30884" stroke="#175847" stroke-miterlimit="10" stroke-linecap="round"/>
</svg>
